<svg aria-hidden="true" style="position: absolute; width: 0; height: 0; overflow: hidden;" version="1.1" xmlns="http://www.w3.org/2000/svg" xmlns:xlink="http://www.w3.org/1999/xlink">
<defs>
<symbol id="comet" viewBox="0 0 32 32">
<title>comet</title>
<path d="M29.333 2.667l-13.333 8 5.333-8c0 0-12.8 8.533-16.133 11.867s-3.333 8.933 0 12.267c3.2 3.333 8.933 3.333 12.267 0s11.867-16.133 11.867-16.133l-6.667 4 6.667-12zM11.333 25.333c-2.533 0-4.667-2.133-4.667-4.667s2.133-4.667 4.667-4.667 4.667 2.133 4.667 4.667-2.133 4.667-4.667 4.667z"></path>
</symbol>
<symbol id="planet" viewBox="0 0 32 32">
<title>planet</title>
<path d="M24.625 2.042c-1.869-0.033-3.873 0.997-5.833 2.292-0.898-0.212-1.825-0.333-2.792-0.333-6.667 0-12 5.333-12 12 0 0.715 0.090 1.404 0.208 2.083-3.4 5.279-2.341 8.2-0.75 9.792 0.8 0.8 1.75 1.208 3.083 1.208 1.624 0 3.515-0.582 5.667-1.708 1.193 0.394 2.46 0.625 3.792 0.625 6.667 0 12-5.333 12-12 0-1.346-0.223-2.629-0.625-3.833 2.040-3.868 2.25-6.958 0.5-8.708-1-1-2.105-1.396-3.25-1.417zM24.5 5.875c0.309 0.013 0.483 0.15 0.583 0.25 0.072 0.145 0.102 0.742-0.208 1.792-0.537-0.59-1.147-1.111-1.792-1.583 0.703-0.341 1.127-0.471 1.417-0.458zM16 6.667c3.195 0 5.988 1.548 7.667 3.958-0.181 0.313-0.356 0.611-0.583 0.958-1.2 2-3.083 4.292-5.083 6.292s-4.25 3.708-6.25 5.042c-0.406 0.265-0.811 0.502-1.167 0.708-2.383-1.682-3.917-4.451-3.917-7.625 0-5.2 4.133-9.333 9.333-9.333zM25.292 15.458c0.010 0.181 0.042 0.358 0.042 0.542 0 5.2-4.133 9.333-9.333 9.333-0.17 0-0.333-0.033-0.5-0.042 1.723-1.281 3.482-2.815 5.167-4.5 1.741-1.741 3.32-3.556 4.625-5.333zM6.208 22.958c0.502 0.706 1.068 1.378 1.708 1.958-0.888 0.278-1.365 0.234-1.5 0.167-0.492-0.492-0.463-1.301-0.208-2.125z"></path>
</symbol>
<symbol id="robot" viewBox="0 0 24 32">
<title>robot</title>
<path d="M16.895 5.177c0 0.575-0.427 1.040-0.954 1.040s-0.954-0.466-0.954-1.040c0-0.575 0.427-1.040 0.954-1.040s0.954 0.466 0.954 1.040z"></path>
<path d="M9.659 5.177c0 0.575-0.427 1.040-0.954 1.040s-0.954-0.466-0.954-1.040c0-0.575 0.427-1.040 0.954-1.040s0.954 0.466 0.954 1.040z"></path>
<path d="M22.69 15.267c-0.237-0.617-0.519-1.357-0.86-2.067 0.567-2.89 1.048-6.46-1.159-9.421-2.736-3.668-7.643-3.76-8.444-3.776-0.984-0.018-5.36-0.12-8.050 2.983-2.419 2.786-2.205 6.44-1.704 9.364-0.461 0.817-0.902 1.779-1.265 2.778l-0.044 0.138c-1.335 3.454-1.603 7.817-0.345 8.18 0.212 0.060 0.601 0.042 3.808-3.305 1.603 3.965 4.143 7.889 7.595 7.889 3.179 0 5.696-3.632 7.37-7.504 2.876 2.962 3.237 2.979 3.44 2.92 1.271-0.363 0.992-4.726-0.343-8.18zM12.143 10.341c-3.632 0-6.576-1.868-6.576-4.173s2.944-4.175 6.576-4.175 6.578 1.868 6.578 4.175-2.944 4.173-6.578 4.173zM16.891 15.305l-1.804 0.898 1.85-2.205 1.966 2.345z"></path>
<path d="M18.24 31.198c0 0.443-2.692 0.802-6.013 0.802s-6.013-0.359-6.013-0.802c0-0.443 2.692-0.802 6.013-0.802s6.013 0.359 6.013 0.802z"></path>
</symbol>
</defs>
</svg>
