<?xml version="1.0"?>
<svg xmlns="http://www.w3.org/2000/svg" viewBox="0 0 24 24">
    <path d="M 18.46875 1.53125 C 17.066886 1.5063875 15.564081 2.279023 14.09375 3.25 C 13.420124 3.0910354 12.72479 3 12 3 C 7 3 3 7 3 12 C 3 12.536542 3.0678362 13.052695 3.15625 13.5625 C 0.60643082 17.521827 1.4001921 19.712692 2.59375 20.90625 C 3.19375 21.50625 3.90625 21.8125 4.90625 21.8125 C 6.1243411 21.8125 7.5424934 21.376132 9.15625 20.53125 C 10.051172 20.826453 11.001404 21 12 21 C 17 21 21 17 21 12 C 21 10.99067 20.832571 10.028152 20.53125 9.125 C 22.061133 6.2238281 22.21875 3.90625 20.90625 2.59375 C 20.15625 1.84375 19.327734 1.5464844 18.46875 1.53125 z M 18.375 4.40625 C 18.606445 4.4162109 18.7375 4.51875 18.8125 4.59375 C 18.866726 4.7022027 18.889038 5.1502472 18.65625 5.9375 C 18.253696 5.495313 17.796139 5.1040849 17.3125 4.75 C 17.83994 4.4940553 18.157467 4.3968878 18.375 4.40625 z M 12 5 C 14.39652 5 16.491317 6.1613002 17.75 7.96875 C 17.614086 8.2031807 17.482688 8.4272124 17.3125 8.6875 C 16.4125 10.1875 15 11.90625 13.5 13.40625 C 12 14.90625 10.3125 16.1875 8.8125 17.1875 C 8.5082108 17.386458 8.2040787 17.563797 7.9375 17.71875 C 6.150545 16.457414 5 14.380554 5 12 C 5 8.1 8.1 5 12 5 z M 18.96875 11.59375 C 18.976408 11.729617 19 11.862028 19 12 C 19 15.9 15.9 19 12 19 C 11.872606 19 11.750606 18.975285 11.625 18.96875 C 12.917188 18.008173 14.236172 16.857578 15.5 15.59375 C 16.805502 14.288248 17.989719 12.926622 18.96875 11.59375 z M 4.65625 17.21875 C 5.032555 17.748571 5.4572818 18.252428 5.9375 18.6875 C 5.2716797 18.895776 4.9137574 18.863129 4.8125 18.8125 C 4.4433824 18.443382 4.4652472 17.836836 4.65625 17.21875 z"/>
</svg>
