<svg aria-hidden="true" style="position: absolute; width: 0; height: 0; overflow: hidden;" version="1.1" xmlns="http://www.w3.org/2000/svg" xmlns:xlink="http://www.w3.org/1999/xlink">
<defs>
<symbol id="cloud" viewBox="0 0 66 32">
<title>cloud</title>
<path d="M65.561 20.293c0-0 0-0.001 0-0.001 0-6.466-5.242-11.707-11.707-11.707-1.377 0-2.699 0.238-3.926 0.674l0.082-0.025c-2.612-5.497-8.118-9.229-14.497-9.229-6.177 0-11.536 3.5-14.203 8.625l-0.042 0.089c-0.527-0.084-1.136-0.132-1.755-0.133h-0.001c-0 0-0.001 0-0.002 0-5.080 0-9.404 3.236-11.025 7.758l-0.026 0.082c-0.215 0-0.433-0.035-0.656-0.035-4.311 0-7.805 3.494-7.805 7.805s3.494 7.805 7.805 7.805v0l46.829-0.027c6.121-0.421 10.926-5.489 10.927-11.68v-0z"></path>
</symbol>
<symbol id="shark" viewBox="0 0 32 32">
<title>shark</title>
<path d="M19.93 0c-1.186 0.213-12.587 2.547-17.707 13.44-4.122 8.742-1.361 16.922-0.768 18.56l30.208-0.213c-6.963-8.659-11.319-19.677-11.731-31.696l-0.002-0.091z"></path>
</symbol>
<symbol id="shoe" viewBox="0 0 11 32">
<title>shoe</title>
<path d="M11.397 9.644c0 5.326-2.551 9.644-5.699 9.644s-5.699-4.318-5.699-9.644c0-5.326 2.551-9.644 5.699-9.644s5.699 4.318 5.699 9.644z"></path>
<path d="M2.63 21.479c-0.824 1.185-1.316 2.655-1.316 4.24 0 0.051 0 0.101 0.002 0.152l-0-0.008c0 3.389 1.973 6.137 4.384 6.137s4.384-2.748 4.384-6.137c0.001-0.043 0.001-0.093 0.001-0.144 0-1.585-0.492-3.054-1.333-4.264l0.016 0.025z"></path>
</symbol>
</defs>
</svg>
