<svg aria-hidden="true" style="position: absolute; width: 0; height: 0; overflow: hidden;" version="1.1" xmlns="http://www.w3.org/2000/svg" xmlns:xlink="http://www.w3.org/1999/xlink">
<defs>
<symbol id="moon" viewBox="0 0 32 32">
<title>moon</title>
<path fill="#ccc" style="fill: var(--color1, #ccc)" d="M32 16c0 8.837-7.163 16-16 16s-16-7.163-16-16c0-8.837 7.163-16 16-16s16 7.163 16 16z"></path>
<path fill="#f2f2f2" style="fill: var(--color2, #f2f2f2)" d="M10.815 13.481c-1.227 0-2.222 0.995-2.222 2.222s0.995 2.222 2.222 2.222c1.227 0 2.222-0.995 2.222-2.222v0c0-1.227-0.995-2.222-2.222-2.222v0zM10.815 17.724c-1.115-0.001-2.018-0.905-2.018-2.019s0.904-2.019 2.019-2.019c1.115 0 2.018 0.903 2.019 2.018v0c0 0.001 0 0.002 0 0.003 0 1.114-0.903 2.018-2.018 2.018-0.001 0-0.002 0-0.003 0h0z"></path>
<path fill="#ccc" style="fill: var(--color1, #ccc)" d="M9.199 15.905c0-0.001 0-0.002 0-0.003 0-1.114 0.903-2.016 2.016-2.016 0.252 0 0.494 0.046 0.716 0.131l-0.014-0.005c-0.312-0.207-0.695-0.331-1.108-0.331-1.115 0-2.019 0.904-2.019 2.019 0 0.867 0.546 1.606 1.313 1.892l0.014 0.005c-0.556-0.365-0.919-0.985-0.919-1.69 0-0.001 0-0.001 0-0.001v0z"></path>
<path fill="#e6e6e6" style="fill: var(--color3, #e6e6e6)" d="M11.917 14.012c-0.209-0.080-0.451-0.127-0.704-0.127-1.114 0-2.018 0.903-2.018 2.018 0 0.707 0.364 1.329 0.914 1.69l0.008 0.005c0.209 0.080 0.451 0.127 0.704 0.127 1.114 0 2.018-0.903 2.018-2.018 0-0.707-0.364-1.329-0.914-1.69l-0.008-0.005z"></path>
<path fill="#f2f2f2" style="fill: var(--color2, #f2f2f2)" d="M20 9.926c-2.046 0-3.704 1.658-3.704 3.704s1.658 3.704 3.704 3.704c2.046 0 3.704-1.658 3.704-3.704v0c0-2.046-1.658-3.704-3.704-3.704v0zM20 16.997c-1.857-0.008-3.36-1.511-3.367-3.367v-0.001c0-1.86 1.508-3.367 3.367-3.367s3.367 1.508 3.367 3.367c0 1.86-1.508 3.367-3.367 3.367v0z"></path>
<path fill="#ccc" style="fill: var(--color1, #ccc)" d="M17.307 13.966c0-1.859 1.507-3.366 3.366-3.366 0.001 0 0.001 0 0.002 0h-0c0.418 0.002 0.818 0.080 1.186 0.223l-0.023-0.008c-0.518-0.343-1.154-0.547-1.838-0.547-1.858 0-3.364 1.506-3.364 3.364 0 1.441 0.905 2.67 2.178 3.149l0.023 0.008c-0.926-0.609-1.529-1.643-1.529-2.818 0-0.002 0-0.004 0-0.006v0z"></path>
<path fill="#e6e6e6" style="fill: var(--color3, #e6e6e6)" d="M21.837 10.815c-0.345-0.133-0.745-0.21-1.163-0.21h-0c-0.001 0-0.003 0-0.005 0-1.858 0-3.364 1.506-3.364 3.364 0 1.176 0.604 2.211 1.518 2.813l0.013 0.008c0.346 0.134 0.746 0.211 1.164 0.212h0c0 0 0 0 0 0 1.859 0 3.366-1.507 3.366-3.366 0-1.176-0.603-2.211-1.517-2.813l-0.013-0.008z"></path>
<path fill="#f2f2f2" style="fill: var(--color2, #f2f2f2)" d="M6.963 8.296c-0.573 0-1.037 0.464-1.037 1.037s0.464 1.037 1.037 1.037c0.573 0 1.037-0.464 1.037-1.037v0c0-0.573-0.464-1.037-1.037-1.037v0zM6.963 10.276c-0 0-0.001 0-0.001 0-0.117 0-0.229-0.022-0.331-0.061l0.006 0.002c-0.36-0.137-0.611-0.479-0.611-0.88 0-0.519 0.421-0.939 0.939-0.939s0.939 0.421 0.939 0.939c0 0.519-0.421 0.939-0.939 0.939-0.001 0-0.002 0-0.003 0h0z"></path>
<path fill="#ccc" style="fill: var(--color1, #ccc)" d="M6.209 9.428c-0-0.003-0-0.006-0-0.009 0-0.519 0.421-0.939 0.939-0.939 0.118 0 0.231 0.022 0.335 0.062l-0.006-0.002c-0.135-0.079-0.298-0.126-0.471-0.126-0.52 0-0.942 0.422-0.942 0.942 0 0.387 0.234 0.72 0.567 0.865l0.006 0.002c-0.259-0.17-0.428-0.459-0.428-0.787 0-0.002 0-0.005 0-0.007v0z"></path>
<path fill="#e6e6e6" style="fill: var(--color3, #e6e6e6)" d="M7.477 8.544c-0.102-0.041-0.221-0.065-0.345-0.065-0.52 0-0.942 0.422-0.942 0.942 0 0.337 0.177 0.633 0.443 0.799l0.004 0.002c0.097 0.038 0.208 0.059 0.325 0.059 0 0 0.001 0 0.001 0h-0c0 0 0 0 0 0 0.52 0 0.942-0.422 0.942-0.942 0-0.329-0.169-0.619-0.425-0.787l-0.004-0.002z"></path>
<path fill="#f2f2f2" style="fill: var(--color2, #f2f2f2)" d="M28.296 12.593c-0.9 0-1.63 0.73-1.63 1.63s0.73 1.63 1.63 1.63c0.9 0 1.63-0.73 1.63-1.63v0c0-0.9-0.73-1.63-1.63-1.63v0zM28.296 15.704c-0.818 0-1.481-0.663-1.481-1.481s0.663-1.481 1.481-1.481c0.818 0 1.481 0.663 1.481 1.481v0c0 0.003 0 0.007 0 0.010 0 0.812-0.659 1.471-1.471 1.471-0.004 0-0.007 0-0.011-0h0.001z"></path>
<path fill="#ccc" style="fill: var(--color1, #ccc)" d="M27.111 14.37c0.001-0.817 0.664-1.48 1.481-1.48 0.184 0 0.36 0.034 0.523 0.095l-0.010-0.003c-0.23-0.155-0.514-0.247-0.819-0.247-0.818 0-1.481 0.663-1.481 1.481 0 0.638 0.403 1.182 0.969 1.39l0.010 0.003c-0.407-0.268-0.672-0.723-0.673-1.24v-0z"></path>
<path fill="#e6e6e6" style="fill: var(--color3, #e6e6e6)" d="M29.105 12.982c-0.228-0.151-0.508-0.24-0.809-0.24-0.818 0-1.481 0.663-1.481 1.481s0.663 1.481 1.481 1.481c0.818 0 1.481-0.663 1.481-1.481 0-0 0-0.001 0-0.001v0c0-0.001 0-0.003 0-0.004 0-0.516-0.265-0.969-0.667-1.232l-0.006-0.003z"></path>
<path fill="#f2f2f2" style="fill: var(--color2, #f2f2f2)" d="M17.333 18.519c-1.391 0-2.519 1.128-2.519 2.519s1.128 2.519 2.519 2.519c1.391 0 2.519-1.128 2.519-2.519v0c0-1.391-1.128-2.519-2.519-2.519v0zM17.333 23.326c-1.264 0-2.289-1.025-2.289-2.289s1.025-2.289 2.289-2.289v0c1.264 0 2.289 1.025 2.289 2.289s-1.025 2.289-2.289 2.289v0z"></path>
<path fill="#ccc" style="fill: var(--color1, #ccc)" d="M15.502 21.267c0-1.264 1.025-2.29 2.289-2.29h0c0.285 0.002 0.556 0.056 0.806 0.153l-0.015-0.005c-0.351-0.231-0.782-0.369-1.245-0.369-1.263 0-2.287 1.024-2.287 2.287 0 0.978 0.614 1.812 1.477 2.14l0.016 0.005c-0.63-0.414-1.040-1.117-1.040-1.916 0-0.002 0-0.004 0-0.006v0z"></path>
<path fill="#e6e6e6" style="fill: var(--color3, #e6e6e6)" d="M18.582 19.12c-0.235-0.092-0.506-0.146-0.79-0.148h-0.001c-0 0-0 0-0.001 0-1.264 0-2.289 1.025-2.289 2.289 0 0.8 0.41 1.504 1.032 1.913l0.009 0.005c0.236 0.090 0.509 0.143 0.795 0.143 1.263 0 2.287-1.024 2.287-2.287 0-0.8-0.411-1.505-1.034-1.914l-0.009-0.005z"></path>
<path fill="#f2f2f2" style="fill: var(--color2, #f2f2f2)" d="M14.296 2.815c-1.35 0-2.444 1.094-2.444 2.444s1.094 2.444 2.444 2.444c1.35 0 2.444-1.094 2.444-2.444v0c0-1.35-1.094-2.444-2.444-2.444v0zM14.296 7.481c-1.227 0-2.222-0.995-2.222-2.222s0.995-2.222 2.222-2.222c1.227 0 2.222 0.995 2.222 2.222v0c0 0.005 0 0.011 0 0.016 0 1.218-0.988 2.206-2.206 2.206-0.006 0-0.011-0-0.017-0h0.001z"></path>
<path fill="#ccc" style="fill: var(--color1, #ccc)" d="M12.519 5.481c0.001-1.226 0.996-2.22 2.222-2.22 0.276 0 0.54 0.050 0.784 0.142l-0.015-0.005c-0.344-0.23-0.768-0.367-1.224-0.367-1.227 0-2.222 0.995-2.222 2.222 0 0.955 0.603 1.77 1.448 2.084l0.015 0.005c-0.611-0.402-1.009-1.085-1.009-1.861v-0z"></path>
<path fill="#e6e6e6" style="fill: var(--color3, #e6e6e6)" d="M15.51 3.399c-0.226-0.085-0.486-0.133-0.758-0.133-1.227 0-2.222 0.995-2.222 2.222 0 0.772 0.393 1.451 0.99 1.85l0.008 0.005c0.226 0.085 0.486 0.133 0.758 0.133 1.227 0 2.222-0.995 2.222-2.222 0-0.772-0.393-1.451-0.99-1.85l-0.008-0.005z"></path>
<path fill="#f2f2f2" style="fill: var(--color2, #f2f2f2)" d="M11.407 23.852c-0.655 0-1.185 0.531-1.185 1.185s0.531 1.185 1.185 1.185c0.655 0 1.185-0.531 1.185-1.185v0c0-0.655-0.531-1.185-1.185-1.185v0zM11.407 26.114c-0 0-0.001 0-0.001 0-0.133 0-0.26-0.024-0.378-0.069l0.007 0.002c-0.415-0.156-0.704-0.549-0.704-1.010 0-0.594 0.482-1.076 1.076-1.077h0c0.002-0 0.005-0 0.008-0 0.217 0 0.42 0.065 0.588 0.177l-0.004-0.002c0.296 0.195 0.489 0.526 0.489 0.902 0 0.595-0.482 1.077-1.077 1.077-0.002 0-0.003 0-0.005 0h0z"></path>
<path fill="#ccc" style="fill: var(--color1, #ccc)" d="M10.545 25.145c0-0.001 0-0.003 0-0.004 0-0.593 0.481-1.074 1.074-1.074 0.135 0 0.265 0.025 0.384 0.071l-0.007-0.002c-0.165-0.11-0.367-0.175-0.584-0.175-0.003 0-0.006 0-0.009 0h0c-0.594 0.001-1.076 0.483-1.076 1.077 0 0.461 0.29 0.854 0.697 1.008l0.007 0.002c-0.294-0.195-0.486-0.526-0.486-0.9 0-0.001 0-0.001 0-0.002v0z"></path>
<path fill="#e6e6e6" style="fill: var(--color3, #e6e6e6)" d="M12 24.135c-0.11-0.042-0.237-0.066-0.37-0.066-0.595 0-1.077 0.482-1.077 1.077 0 0.375 0.192 0.706 0.483 0.899l0.004 0.003c0.11 0.042 0.237 0.067 0.37 0.067 0.001 0 0.001 0 0.002 0h-0c0.001 0 0.003 0 0.004 0 0.595 0 1.077-0.482 1.077-1.077 0-0.376-0.193-0.707-0.485-0.9l-0.004-0.003z"></path>
<path fill="#f2f2f2" style="fill: var(--color2, #f2f2f2)" d="M4.889 19.556c-0.9 0-1.63 0.73-1.63 1.63s0.73 1.63 1.63 1.63c0.9 0 1.63-0.73 1.63-1.63v0c0-0.9-0.73-1.63-1.63-1.63v0zM4.889 22.667c-0.818 0-1.481-0.663-1.481-1.481s0.663-1.481 1.481-1.481c0.818 0 1.481 0.663 1.481 1.481v0c0 0.003 0 0.007 0 0.010 0 0.812-0.659 1.471-1.471 1.471-0.004 0-0.007 0-0.011-0h0.001z"></path>
<path fill="#ccc" style="fill: var(--color1, #ccc)" d="M3.704 21.333c0.001-0.817 0.664-1.48 1.481-1.48 0.184 0 0.36 0.034 0.523 0.095l-0.010-0.003c-0.23-0.155-0.514-0.247-0.819-0.247-0.818 0-1.481 0.663-1.481 1.481 0 0.638 0.403 1.182 0.969 1.39l0.010 0.003c-0.407-0.268-0.672-0.723-0.673-1.24v-0z"></path>
<path fill="#e6e6e6" style="fill: var(--color3, #e6e6e6)" d="M5.698 19.945c-0.149-0.056-0.322-0.088-0.502-0.088-0.818 0-1.481 0.663-1.481 1.481 0 0.513 0.261 0.965 0.657 1.231l0.005 0.003c0.149 0.056 0.322 0.088 0.502 0.088 0.818 0 1.481-0.663 1.481-1.481 0-0.513-0.261-0.965-0.657-1.231l-0.005-0.003z"></path>
<path fill="#f2f2f2" style="fill: var(--color2, #f2f2f2)" d="M23.407 23.704c-0.9 0-1.63 0.73-1.63 1.63s0.73 1.63 1.63 1.63c0.9 0 1.63-0.73 1.63-1.63v0c0-0.9-0.73-1.63-1.63-1.63v0zM23.407 26.815c-0.818 0-1.481-0.663-1.481-1.481s0.663-1.481 1.481-1.481c0.818 0 1.481 0.663 1.481 1.481v0c0 0.003 0 0.007 0 0.010 0 0.812-0.659 1.471-1.471 1.471-0.004 0-0.007 0-0.011-0h0.001z"></path>
<path fill="#ccc" style="fill: var(--color1, #ccc)" d="M22.222 25.481c0.001-0.817 0.664-1.48 1.481-1.48 0.184 0 0.36 0.034 0.523 0.095l-0.010-0.003c-0.23-0.155-0.514-0.247-0.819-0.247-0.818 0-1.481 0.663-1.481 1.481 0 0.638 0.403 1.182 0.969 1.39l0.010 0.003c-0.407-0.268-0.672-0.723-0.673-1.24v-0z"></path>
<path fill="#e6e6e6" style="fill: var(--color3, #e6e6e6)" d="M24.216 24.093c-0.149-0.056-0.322-0.088-0.502-0.088-0.818 0-1.481 0.663-1.481 1.481 0 0.513 0.261 0.965 0.657 1.231l0.005 0.003c0.149 0.056 0.322 0.088 0.502 0.088 0.818 0 1.481-0.663 1.481-1.481 0-0.513-0.261-0.965-0.657-1.231l-0.005-0.003z"></path>
<path fill="#f2f2f2" style="fill: var(--color2, #f2f2f2)" d="M23.111 3.259c-0.9 0-1.63 0.73-1.63 1.63s0.73 1.63 1.63 1.63c0.9 0 1.63-0.73 1.63-1.63v0c0-0.9-0.73-1.63-1.63-1.63v0zM23.111 6.37c-0.818 0-1.481-0.663-1.481-1.481s0.663-1.481 1.481-1.481c0.818 0 1.481 0.663 1.481 1.481v0c0 0.003 0 0.007 0 0.010 0 0.812-0.659 1.471-1.471 1.471-0.004 0-0.007 0-0.011-0h0.001z"></path>
<path fill="#ccc" style="fill: var(--color1, #ccc)" d="M21.926 5.037c0.001-0.817 0.664-1.48 1.481-1.48 0.184 0 0.36 0.034 0.523 0.095l-0.010-0.003c-0.23-0.155-0.514-0.247-0.819-0.247-0.818 0-1.481 0.663-1.481 1.481 0 0.638 0.403 1.182 0.969 1.39l0.010 0.003c-0.407-0.268-0.672-0.723-0.673-1.24v-0z"></path>
<path fill="#e6e6e6" style="fill: var(--color3, #e6e6e6)" d="M23.92 3.649c-0.149-0.056-0.322-0.088-0.502-0.088-0.818 0-1.481 0.663-1.481 1.481 0 0.513 0.261 0.965 0.657 1.231l0.005 0.003c0.149 0.056 0.322 0.088 0.502 0.088 0.818 0 1.481-0.663 1.481-1.481 0-0.513-0.261-0.965-0.657-1.231l-0.005-0.003z"></path>
</symbol>
<symbol id="mountain" viewBox="0 0 111 32">
<title>mountain</title>
<path d="M0 32c14.674-7.794 27.473-13.638 37.221-17.804 41.472-17.722 51.171-15.077 55.831-11.869 2.432 1.674 4.259 4.352 7.909 9.711 3.971 5.744 7.321 12.35 9.719 19.395l0.167 0.566z"></path>
</symbol>
<symbol id="tree" viewBox="0 0 21 32">
<title>tree</title>
<path d="M21.322 27.429l-4.229-7.51h2.103l-3.412-6.204h2.273l-7.559-13.714-7.559 13.714h2.433l-3.412 6.204h2.269l-4.229 7.51h7.935v4.571h5.551v-4.571h7.837z"></path>
</symbol>
<symbol id="wolf" viewBox="0 0 33 32">
<title>wolf</title>
<path d="M32.35 0.484c-0.242-0.022-0.419 1.226-0.726 1.207-0.234 0-0.385-0.756-0.481-1.449l-0.487-0.242c-0.269 0.57-0.783 2.219-1.038 2.789l-1.92 2.321s-0.718 1.587-1.345 2.689 0.807 0.269 0.807 0.269l-1.882 3.496c-1.64 2.56-3.496 1.882-7.118 2.77l-6.059 1.901c-0.226 0.118-0.457 0.229-0.696 0.331l-2.573 2.689-0.495 0.476-1.474 1.963-0.196 0.081c-0.078 0.112-0.166 0.208-0.267 0.291l-0.002 0.002c-0.17 0.221-0.394 0.391-0.654 0.491l-0.010 0.003c-0.444 0.336-1.005 0.538-1.614 0.538-0.009 0-0.019-0-0.028-0h0.001c-0.079-0.001-0.155-0.010-0.228-0.026l0.008 0.001-0.108 0.051c-1.291 0.081-2.474-0.153-3.765-0.073 0.242 0.484 1.103 1.202 1.345 1.686 0.236 0.133 0.439 0.272 0.63 0.426l-0.008-0.007 0.194 0.013c0.259 0.001 0.5 0.075 0.705 0.202l-0.006-0.003c0.664 0.054 1.345 0.067 1.995 0.143 0.346-0.107 0.758-0.195 1.18-0.247l0.035-0.003c0.756-0.202 1.509-0.374 2.275-0.627l0.083-0.11-0.091 1.092-0.597 6.381h1.094l0.982-3.437 1.076-1.882 1.748-1.942 2.689-1.613 3.813-0.941h6.378l0.982 2.945 0.492 2.958 0.973 3.913h1.043q-0.032-2.958-0.062-5.889l0.363-3.523 1.116-3.348 0.497-2.568v-0.269c0.164-1.121 0.374-1.837 0.538-2.958l0.538-3.227c0-0.506 0.551-3.117 0.538-4.034-0.022-1.46 0.223-5.666-0.188-5.701z"></path>
</symbol>
</defs>
</svg>
