<svg id="Layer_1" data-name="Layer 1" xmlns="http://www.w3.org/2000/svg" viewBox="0 0 216 216">
  <title>moon</title>
  <circle cx="108" cy="108" r="108" fill="#ccc"/>
  <g>
    <path d="M92,106a15,15,0,1,0,15,15A15,15,0,0,0,92,106Zm0,28.64A13.63,13.63,0,1,1,105.64,121,13.62,13.62,0,0,1,92,134.64Z" transform="translate(-19 -15)" fill="#f2f2f2"/>
    <path d="M81.09,122.36a13.61,13.61,0,0,1,18.35-12.78,13.63,13.63,0,1,0-12.15,24.2A13.6,13.6,0,0,1,81.09,122.36Z" transform="translate(-19 -15)" fill="#ccc"/>
    <path d="M99.44,109.58a13.62,13.62,0,0,0-12.15,24.2,13.62,13.62,0,0,0,12.15-24.2Z" transform="translate(-19 -15)" fill="#e6e6e6"/>
  </g>
  <g>
    <path d="M154,82a25,25,0,1,0,25,25A25,25,0,0,0,154,82Zm0,47.73A22.82,22.82,0,0,1,131.27,107,22.73,22.73,0,1,1,154,129.73Z" transform="translate(-19 -15)" fill="#f2f2f2"/>
    <path d="M135.82,109.27a22.72,22.72,0,0,1,22.73-22.72A22.49,22.49,0,0,1,166.4,88a22.71,22.71,0,1,0-20.26,40.33A22.69,22.69,0,0,1,135.82,109.27Z" transform="translate(-19 -15)" fill="#ccc"/>
    <path d="M166.4,88a22.49,22.49,0,0,0-7.85-1.42,22.71,22.71,0,0,0-12.41,41.75,22.51,22.51,0,0,0,7.86,1.43A22.72,22.72,0,0,0,166.4,88Z" transform="translate(-19 -15)" fill="#e6e6e6"/>
  </g>
  <g>
    <path d="M66,71a7,7,0,1,0,7,7A7,7,0,0,0,66,71Zm0,13.36a6.22,6.22,0,0,1-2.2-.4,6.34,6.34,0,1,1,2.2.4Z" transform="translate(-19 -15)" fill="#f2f2f2"/>
    <path d="M60.91,78.64a6.34,6.34,0,0,1,8.56-6A6.36,6.36,0,1,0,63.8,84,6.33,6.33,0,0,1,60.91,78.64Z" transform="translate(-19 -15)" fill="#ccc"/>
    <path d="M69.47,72.67A6.36,6.36,0,0,0,63.8,84a6.22,6.22,0,0,0,2.2.4,6.36,6.36,0,0,0,3.47-11.69Z" transform="translate(-19 -15)" fill="#e6e6e6"/>
  </g>
  <g>
    <path d="M210,100a11,11,0,1,0,11,11A11,11,0,0,0,210,100Zm0,21a10,10,0,1,1,10-10A9.93,9.93,0,0,1,210,121Z" transform="translate(-19 -15)" fill="#f2f2f2"/>
    <path d="M202,112a10,10,0,0,1,13.46-9.37,10,10,0,1,0-8.92,17.74A10,10,0,0,1,202,112Z" transform="translate(-19 -15)" fill="#ccc"/>
    <path d="M215.46,102.63A10,10,0,1,0,220,111,9.93,9.93,0,0,0,215.46,102.63Z" transform="translate(-19 -15)" fill="#e6e6e6"/>
  </g>
  <g>
    <path d="M136,140a17,17,0,1,0,17,17A17,17,0,0,0,136,140Zm0,32.45a15.45,15.45,0,0,1,0-30.9,15.45,15.45,0,0,1,0,30.9Z" transform="translate(-19 -15)" fill="#f2f2f2"/>
    <path d="M123.64,158.55a15.46,15.46,0,0,1,15.45-15.46,15.24,15.24,0,0,1,5.34,1,15.44,15.44,0,1,0-13.77,27.43A15.42,15.42,0,0,1,123.64,158.55Z" transform="translate(-19 -15)" fill="#ccc"/>
    <path d="M144.43,144.06a15.24,15.24,0,0,0-5.34-1,15.45,15.45,0,0,0-8.43,28.4,15.44,15.44,0,0,0,13.77-27.43Z" transform="translate(-19 -15)" fill="#e6e6e6"/>
  </g>
  <g>
    <path d="M115.5,34A16.5,16.5,0,1,0,132,50.5,16.5,16.5,0,0,0,115.5,34Zm0,31.5a15,15,0,1,1,15-15A14.89,14.89,0,0,1,115.5,65.5Z" transform="translate(-19 -15)" fill="#f2f2f2"/>
    <path d="M103.5,52a15,15,0,0,1,20.19-14.06,15,15,0,1,0-13.38,26.62A15,15,0,0,1,103.5,52Z" transform="translate(-19 -15)" fill="#ccc"/>
    <path d="M123.69,37.94a15,15,0,0,0-13.38,26.62,15,15,0,0,0,13.38-26.62Z" transform="translate(-19 -15)" fill="#e6e6e6"/>
  </g>
  <g>
    <path d="M96,176a8,8,0,1,0,8,8A8,8,0,0,0,96,176Zm0,15.27a7.17,7.17,0,0,1-2.51-.45A7.27,7.27,0,0,1,96,176.73a7.18,7.18,0,0,1,4,1.18,7.27,7.27,0,0,1-4,13.36Z" transform="translate(-19 -15)" fill="#f2f2f2"/>
    <path d="M90.18,184.73a7.25,7.25,0,0,1,9.79-6.82,7.18,7.18,0,0,0-4-1.18,7.27,7.27,0,0,0-2.51,14.09A7.27,7.27,0,0,1,90.18,184.73Z" transform="translate(-19 -15)" fill="#ccc"/>
    <path d="M100,177.91a7.27,7.27,0,0,0-6.48,12.91,7.17,7.17,0,0,0,2.51.45,7.27,7.27,0,0,0,4-13.36Z" transform="translate(-19 -15)" fill="#e6e6e6"/>
  </g>
  <g>
    <path d="M52,147a11,11,0,1,0,11,11A11,11,0,0,0,52,147Zm0,21a10,10,0,1,1,10-10A9.93,9.93,0,0,1,52,168Z" transform="translate(-19 -15)" fill="#f2f2f2"/>
    <path d="M44,159a10,10,0,0,1,13.46-9.37,10,10,0,1,0-8.92,17.74A10,10,0,0,1,44,159Z" transform="translate(-19 -15)" fill="#ccc"/>
    <path d="M57.46,149.63a10,10,0,0,0-8.92,17.74,10,10,0,0,0,8.92-17.74Z" transform="translate(-19 -15)" fill="#e6e6e6"/>
  </g>
  <g>
    <path d="M177,175a11,11,0,1,0,11,11A11,11,0,0,0,177,175Zm0,21a10,10,0,1,1,10-10A9.93,9.93,0,0,1,177,196Z" transform="translate(-19 -15)" fill="#f2f2f2"/>
    <path d="M169,187a10,10,0,0,1,13.46-9.37,10,10,0,1,0-8.92,17.74A10,10,0,0,1,169,187Z" transform="translate(-19 -15)" fill="#ccc"/>
    <path d="M182.46,177.63a10,10,0,0,0-8.92,17.74,10,10,0,0,0,8.92-17.74Z" transform="translate(-19 -15)" fill="#e6e6e6"/>
  </g>
  <g>
    <path d="M175,37a11,11,0,1,0,11,11A11,11,0,0,0,175,37Zm0,21a10,10,0,1,1,10-10A9.93,9.93,0,0,1,175,58Z" transform="translate(-19 -15)" fill="#f2f2f2"/>
    <path d="M167,49a10,10,0,0,1,13.46-9.37,10,10,0,1,0-8.92,17.74A10,10,0,0,1,167,49Z" transform="translate(-19 -15)" fill="#ccc"/>
    <path d="M180.46,39.63a10,10,0,0,0-8.92,17.74,10,10,0,0,0,8.92-17.74Z" transform="translate(-19 -15)" fill="#e6e6e6"/>
  </g>
</svg>
