<svg id="Layer_1" data-name="Layer 1" xmlns="http://www.w3.org/2000/svg" viewBox="0 0 121.2 119">
  <title>wolf</title>
  <path d="M169.3,69.8c-.9-.08-1.56,4.56-2.7,4.49-.87,0-1.43-2.81-1.79-5.39L163,68c-1,2.12-2.91,8.25-3.86,10.37L152,87s-2.67,5.9-5,10,3,1,3,1l-7,13c-6.1,9.52-13,7-26.47,10.3L94,128.37c-.84.44-1.7.85-2.59,1.23l-9.57,10L80,141.37l-5.48,7.3-.73.3a5.37,5.37,0,0,1-1,1.09,5.6,5.6,0,0,1-2.47,1.84,10,10,0,0,1-6.1,2,4.48,4.48,0,0,1-.82-.09L63,154c-4.8.3-9.2-.57-14-.27.9,1.8,4.1,4.47,5,6.27a16.71,16.71,0,0,1,2.31,1.56l.72.05a5,5,0,0,1,2.6.74c2.47.2,5,.25,7.42.53a27.07,27.07,0,0,1,4.52-.93c2.81-.75,5.61-1.39,8.46-2.33l.31-.41L80,163.27,77.78,187h4.07l3.65-12.78,4-7L96,160l10-6,14.18-3.5H143.9l3.65,10.95,1.83,11L153,187h3.88q-.12-11-.23-21.9L158,152l4.15-12.45L164,130v-1c.61-4.17,1.39-6.83,2-11l2-12c0-1.88,2.05-11.59,2-15C169.92,85.57,170.83,69.93,169.3,69.8Z" transform="translate(-49 -68)"/>
</svg>
